<svg version="1.1" id="databasics-logo" xmlns="http://www.w3.org/2000/svg" x="0" y="0" viewBox="0 0 455.2 76.89" xml:space="preserve">
  <path style="fill:#00a0df;" d="M0 74.14V2.93C0 1.36 1.27.1 2.83.1h71.21c1.56 0 2.83 1.27 2.83 2.83v71.21c0 1.56-1.27 2.83-2.83 2.83H2.83C1.27 76.97 0 75.7 0 74.14"/>
  <path d="M33.41 20.81v11.31s17.42-3.92 17.42 16.73l-1.71 4.1s10.13-2.46 10.13-14.41c0-11.96-6.81-17.73-25.84-17.73" fill="#fcdf1b"/>
  <path style="fill:#fff;" d="M40.56 59.32H20.3c-.88 0-1.59-.71-1.59-1.59V19.34c0-.88.71-1.59 1.59-1.59h20.81c11.35 0 20.6 9.14 20.79 20.44.19 11.62-9.71 21.13-21.34 21.13M24.1 53.93h16.56c8.28 0 15.41-6.35 15.82-14.62.44-8.84-6.63-16.17-15.38-16.17h-17v30.79z"/>
  <path style="fill:#fff;" d="M36.19 59.32H20.24c-.85 0-1.54-.69-1.54-1.53V19.28c0-.85.69-1.53 1.54-1.53h16.88v11.54h-.3c8.39 0 15.03 6.92 14.85 15.36-.19 8.23-7.24 14.67-15.48 14.67M24.1 23.14v30.79h12.2c5.12 0 9.6-3.86 9.94-8.97.38-5.6-4.08-10.28-9.6-10.28h-4.92V23.14"/>
  <g class="logo-text">
    <path style="fill:#4a4f54;" d="M110.64 8.17H96.58v40.71h14.07c6.13 0 11.33-2 15.03-5.78 3.69-3.77 5.73-9.26 5.6-15.04-.23-9.9-6.7-19.89-20.64-19.89m15.89 19.92c.09 4.53-1.51 8.81-4.39 11.74-2.82 2.88-6.8 4.41-11.5 4.41h-9.32V12.75h9.32c10.76 0 15.74 7.71 15.89 15.34M151.18 8.17l-18.26 40.71h5.14l4.23-9.58h22.14l4.29 9.58h5.14L155.59 8.17h-4.41zm-6.95 26.61l9.13-20.69 9.13 20.69h-18.26zM202.57 8.22h-32.92v4.42h14.09v36.24h4.75V12.64h14.08zM216.87 8.17l-18.26 40.71h5.14l4.23-9.58h22.14l4.29 9.58h5.14L221.28 8.17h-4.41zm-6.95 26.61l9.13-20.69 9.13 20.69h-18.26zM270.98 27.96c3.06-1.7 4.88-4.73 4.88-8.29 0-8.49-7.37-11.51-13.68-11.51h-16.85v40.71h16.85c9.54 0 15.01-4.03 15.01-11.06 0-4.33-2.38-8-6.21-9.85m-20.9 2.44h12.49c2.31 0 9.87.53 9.93 7.37 0 4.3-3.47 6.48-10.32 6.48h-12.1V30.4zm12.49-4.58h-12.49V12.47h12.1c4.2 0 9.1 1.89 9.1 7.2 0 5.08-4.74 6.15-8.71 6.15M299.68 8.17l-18.26 40.71h5.14l4.23-9.58h22.14l4.29 9.58h5.14L304.09 8.17h-4.41zm-6.95 26.61l9.13-20.69 9.13 20.69h-18.26zM342.97 25.72l-.43-.09c-6.73-1.45-11.14-2.7-11.02-6.8.19-6.84 10-6.76 11.11-6.73 4.21.17 8.45.91 10.94 5.18l.43.73 4.04-2.24-.49-.78c-3.74-5.92-8.61-7.25-14.78-7.42-5.37-.15-10.24 1.37-13.02 4.05-1.95 1.88-2.95 4.31-2.97 7.18-.22 7.92 7.77 9.71 14.82 11.29 7.3 1.6 12.07 3.02 11.89 7.82-.18 6.65-8.27 7.15-11.74 7.05-4.57-.12-10.28-2.55-12.35-6.93l-.37-.78-4.28 2 .37.79c3.14 6.68 10.59 9.23 16.5 9.4 3.8.1 16.24-.41 16.61-11.34.24-8.96-8-10.78-15.26-12.38M439.95 25.72l-.43-.09c-6.73-1.45-11.14-2.7-11.02-6.8.19-6.84 10-6.76 11.11-6.73 4.21.17 8.45.91 10.94 5.18l.43.73 4.04-2.24-.49-.78c-3.74-5.92-8.61-7.25-14.78-7.42-5.37-.15-10.24 1.37-13.02 4.05-1.95 1.88-2.95 4.31-2.97 7.18-.22 7.92 7.77 9.71 14.82 11.29 7.3 1.6 12.07 3.02 11.89 7.82-.18 6.65-8.27 7.15-11.74 7.05-4.57-.12-10.28-2.55-12.35-6.93l-.38-.78-4.29 2 .37.79c3.14 6.68 10.59 9.23 16.5 9.4 3.8.1 16.24-.41 16.61-11.34.26-8.96-7.98-10.78-15.24-12.38M367.58 8.17h4.69v40.71h-4.69zM401.3 12.13c4.4 0 8.49 1.67 11.52 4.7l.57.57 3.38-2.92-.66-.66c-3.93-3.94-9.2-6.1-14.81-6.1-6.12 0-11.35 2.01-15.1 5.8-3.81 3.85-5.88 9.26-5.81 15.22.05 10.24 6.54 20.58 20.91 20.58 5.62 0 10.88-2.17 14.81-6.1l.63-.63-3.26-3.08-.6.59c-3.04 2.99-7.26 4.7-11.58 4.7-11.87 0-16.19-8.71-16.28-16.17-.03-4.83 1.57-9.12 4.52-12.08 2.88-2.89 6.94-4.42 11.76-4.42"/>
  </g>
  <g class="logo-text">
    <path style="fill:#00a0df;" d="M96.58 58.77h8.24v1.09h-3.49v9.5h-1.26v-9.5h-3.49zM109.35 58.77h1.26v10.58h-1.26zM123.91 61.24l-3.31 6.18-3.3-6.18v8.12h-1.25V58.77h1.2l3.35 6.26 3.34-6.26h1.21v10.59h-1.24zM130.58 58.77h6.84v1.09h-5.58v3.64h4.82v1.09h-4.82v3.68h5.58v1.09h-6.84zM150.04 66.56c0-.64.17-1.2.51-1.7.34-.49.95-.99 1.84-1.49-.42-.47-.7-.82-.85-1.06-.15-.24-.27-.49-.36-.75s-.13-.53-.13-.81c0-.74.24-1.31.72-1.73.48-.41 1.15-.62 2.01-.62.8 0 1.43.2 1.88.62.46.41.69.98.69 1.72 0 .53-.17 1.01-.5 1.46s-.89.9-1.66 1.35l3 2.89c.28-.31.5-.66.66-1.07.16-.41.3-.86.42-1.35h1.24c-.33 1.41-.84 2.48-1.51 3.2l2.21 2.15h-1.69l-1.36-1.31c-.58.52-1.17.9-1.77 1.12-.6.23-1.27.34-2.01.34-1.06 0-1.88-.26-2.46-.78-.59-.54-.88-1.26-.88-2.18m3.36 1.84c1.18 0 2.17-.38 2.95-1.14l-3.23-3.13c-.55.33-.93.61-1.16.83-.23.22-.39.45-.5.71-.11.25-.16.54-.16.85 0 .58.19 1.03.57 1.37.39.35.9.51 1.53.51m-1.14-7.69c0 .34.09.66.27.97.18.31.48.68.91 1.11.64-.37 1.08-.71 1.33-1.02s.37-.67.37-1.08c0-.38-.13-.69-.38-.93s-.59-.36-1.01-.36c-.44 0-.79.12-1.07.36-.29.24-.42.56-.42.95M172.48 58.77h6.83v1.09h-5.58v3.64h4.83v1.09h-4.83v3.68h5.58v1.09h-6.83zM187.76 65.09l-2.8 4.27h-1.42l3.52-5.27-3.52-5.32h1.5l2.76 4.27 2.82-4.27h1.42l-3.52 5.26 3.52 5.33h-1.5zM196.72 58.77h3.98c2.06 0 3.39 1.01 3.39 3.28 0 2.28-1.33 3.3-3.39 3.3h-2.72v4.01h-1.26V58.77zm1.25 5.49h2.69c1.3 0 2.13-.65 2.13-2.21 0-1.54-.85-2.19-2.13-2.19h-2.69v4.4zM208.92 58.77h6.83v1.09h-5.58v3.64h4.82v1.09h-4.82v3.68h5.58v1.09h-6.83zM221.99 61.06v8.3h-1.26V58.77h1.18l5.46 8.29v-8.29h1.26v10.59h-1.18zM238.65 64.79l-2.01-.38c-1.65-.32-2.63-1.23-2.63-2.81 0-1.95 1.36-2.98 3.75-2.98s3.75 1.06 3.75 3.19v.14h-1.24v-.14c0-1.39-.88-2.1-2.51-2.1s-2.46.62-2.46 1.81c0 .98.64 1.54 1.65 1.74l2 .38c1.69.32 2.65 1.21 2.65 2.79 0 2.04-1.44 3.07-3.84 3.07-2.39 0-3.83-1.07-3.83-3.19v-.13h1.25v.13c0 1.39.94 2.1 2.57 2.1 1.65 0 2.55-.62 2.55-1.9-.01-.98-.64-1.52-1.65-1.72M246.87 58.77h6.83v1.09h-5.58v3.64h4.82v1.09h-4.82v3.68h5.58v1.09h-6.83zM258.69 67.5h1.33v1.86h-1.33zM273.32 58.77h4.48c1.86 0 2.96.94 2.96 2.78 0 1.19-.48 1.99-1.33 2.43 1 .38 1.56 1.26 1.56 2.57 0 1.85-1.09 2.8-2.96 2.8h-4.7V58.77h-.01zm1.25 4.73h3.01c1.27 0 1.89-.63 1.89-1.83 0-1.18-.63-1.81-1.87-1.81h-3.02v3.64h-.01zm0 4.77h3.23c1.26 0 1.89-.63 1.89-1.83 0-1.19-.62-1.84-1.88-1.84h-3.25l.01 3.67zM285.96 58.77h6.84v1.09h-5.58v3.64h4.82v1.09h-4.82v3.68h5.58v1.09h-6.84zM296.88 58.77h8.24v1.09h-3.5v9.5h-1.25v-9.5h-3.49zM308.74 58.77h8.24v1.09h-3.49v9.5h-1.26v-9.5h-3.49zM321.51 58.77h6.84v1.09h-5.58v3.64h4.82v1.09h-4.82v3.68h5.58v1.09h-6.84zM333.33 58.77h4.2c2.06 0 3.39 1.01 3.39 3.28 0 1.71-.74 2.71-1.98 3.1l2.06 4.2h-1.45l-1.89-4.01H334.59v4.01h-1.26V58.77zm1.26 5.49h2.92c1.3 0 2.13-.65 2.13-2.21 0-1.54-.85-2.19-2.13-2.19h-2.92v4.4zM353.01 58.77h8.24v1.09h-3.49v9.5h-1.26v-9.5h-3.49zM373.82 65.71c0 2.43-1.56 3.8-4.11 3.8-2.53 0-4.08-1.36-4.08-3.8v-3.3c0-2.45 1.56-3.8 4.11-3.8 2.53 0 4.08 1.35 4.08 3.8v3.3zm-1.25-3.29c0-1.72-1.06-2.71-2.83-2.71-1.8 0-2.86.98-2.86 2.71v3.3c0 1.73 1.06 2.71 2.83 2.71 1.8 0 2.86-.98 2.86-2.71v-3.3zM385.75 66v-.94h-3.33v-1.09H387v5.38h-.94l-.15-1.1c-.64.82-1.69 1.26-3.1 1.26-2.42 0-3.86-1.33-3.86-3.8v-3.27c0-2.51 1.56-3.83 4.08-3.83 2.41 0 3.96 1.1 3.96 3.3v.11h-1.25v-.11c0-1.41-1.03-2.21-2.71-2.21-1.77 0-2.83.94-2.83 2.74v3.27c0 1.73 1.06 2.71 2.81 2.71 1.71 0 2.74-.89 2.74-2.42M392.32 58.77h6.83v1.09h-5.58v3.64h4.83v1.09h-4.83v3.68h5.58v1.09h-6.83zM403.23 58.77h8.24v1.09h-3.49v9.5h-1.26v-9.5h-3.49zM422.64 64.59h-5.38v4.77H416V58.77h1.26v4.73h5.38v-4.73h1.25v10.59h-1.25zM429.33 58.77h6.84v1.09h-5.58v3.64h4.82v1.09h-4.82v3.68h5.58v1.09h-6.84zM441.15 58.77h4.2c2.06 0 3.39 1.01 3.39 3.28 0 1.71-.74 2.71-1.98 3.1l2.06 4.2h-1.45l-1.89-4.01H442.41v4.01h-1.26V58.77zm1.26 5.49h2.92c1.3 0 2.13-.65 2.13-2.21 0-1.54-.85-2.19-2.13-2.19h-2.92v4.4zM453.87 67.5h1.33v1.86h-1.33z"/>
  </g>
</svg>
