<?xml version="1.0" encoding="utf-8"?>
<!-- Generator: Adobe Illustrator 24.2.1, SVG Export Plug-In . SVG Version: 6.00 Build 0)  -->
<svg version="1.1" id="Layer_1" xmlns="http://www.w3.org/2000/svg" xmlns:xlink="http://www.w3.org/1999/xlink" x="0px" y="0px"
	 viewBox="0 0 455.2 76.89" style="enable-background:new 0 0 455.2 76.89;" xml:space="preserve">
<g>
	<path style="fill:#00a0df;" d="M0,74.14V2.93C0,1.36,1.27,0.1,2.83,0.1h71.21c1.56,0,2.83,1.27,2.83,2.83v71.21c0,1.56-1.27,2.83-2.83,2.83
		H2.83C1.27,76.97,0,75.7,0,74.14"/>
	<path style="fill:#fcdf1b;" d="M33.41,20.81v11.31c0,0,17.42-3.92,17.42,16.73l-1.71,4.1c0,0,10.13-2.46,10.13-14.41
		C59.25,26.58,52.44,20.81,33.41,20.81"/>
	<path style="fill:#fff;" d="M40.56,59.32H20.3c-0.88,0-1.59-0.71-1.59-1.59V19.34c0-0.88,0.71-1.59,1.59-1.59h20.81
		c11.35,0,20.6,9.14,20.79,20.44C62.09,49.81,52.19,59.32,40.56,59.32 M24.1,53.93h16.56c8.28,0,15.41-6.35,15.82-14.62
		c0.44-8.84-6.63-16.17-15.38-16.17h-17V53.93z"/>
	<path style="fill:#fff;" d="M36.19,59.32H20.24c-0.85,0-1.54-0.69-1.54-1.53V19.28c0-0.85,0.69-1.53,1.54-1.53h16.88v11.54h-0.3
		c8.39,0,15.03,6.92,14.85,15.36C51.48,52.88,44.43,59.32,36.19,59.32 M24.1,23.14v30.79h12.2c5.12,0,9.6-3.86,9.94-8.97
		c0.38-5.6-4.08-10.28-9.6-10.28h-4.92V23.14"/>
</g>
<g>
	<path style="fill:#fff;" d="M110.64,8.17H96.58v40.71h14.07c6.13,0,11.33-2,15.03-5.78c3.69-3.77,5.73-9.26,5.6-15.04l0,0
		C131.05,18.16,124.58,8.17,110.64,8.17 M126.53,28.09c0.09,4.53-1.51,8.81-4.39,11.74c-2.82,2.88-6.8,4.41-11.5,4.41h-9.32V12.75
		h9.32C121.4,12.75,126.38,20.46,126.53,28.09"/>
	<path style="fill:#fff;" d="M151.18,8.17l-18.26,40.71h5.14l4.23-9.58h22.14l4.29,9.58h5.14L155.59,8.17H151.18z M144.23,34.78l9.13-20.69
		l9.13,20.69H144.23z"/>
	<polygon style="fill:#fff;" points="202.57,8.22 169.65,8.22 169.65,12.64 183.74,12.64 183.74,48.88 188.49,48.88 188.49,12.64
		202.57,12.64 	"/>
	<path style="fill:#fff;" d="M216.87,8.17l-18.26,40.71h5.14l4.23-9.58h22.14l4.29,9.58h5.14L221.28,8.17H216.87z M209.92,34.78l9.13-20.69
		l9.13,20.69H209.92z"/>
	<path style="fill:#fff;" d="M270.98,27.96c3.06-1.7,4.88-4.73,4.88-8.29c0-8.49-7.37-11.51-13.68-11.51h-16.85v40.71h16.85
		c9.54,0,15.01-4.03,15.01-11.06C277.19,33.48,274.81,29.81,270.98,27.96 M250.08,30.4h12.49c2.31,0,9.87,0.53,9.93,7.37
		c0,4.3-3.47,6.48-10.32,6.48h-12.1L250.08,30.4L250.08,30.4z M262.57,25.82h-12.49V12.47h12.1c4.2,0,9.1,1.89,9.1,7.2
		C271.28,24.75,266.54,25.82,262.57,25.82"/>
	<path style="fill:#fff;" d="M299.68,8.17l-18.26,40.71h5.14l4.23-9.58h22.14l4.29,9.58h5.14L304.09,8.17H299.68z M292.73,34.78l9.13-20.69
		l9.13,20.69H292.73z"/>
	<path style="fill:#fff;" d="M342.97,25.72l-0.43-0.09c-6.73-1.45-11.14-2.7-11.02-6.8c0.19-6.84,10-6.76,11.11-6.73
		c4.21,0.17,8.45,0.91,10.94,5.18l0.43,0.73l4.04-2.24l-0.49-0.78c-3.74-5.92-8.61-7.25-14.78-7.42
		c-5.37-0.15-10.24,1.37-13.02,4.05c-1.95,1.88-2.95,4.31-2.97,7.18c-0.22,7.92,7.77,9.71,14.82,11.29
		c7.3,1.6,12.07,3.02,11.89,7.82c-0.18,6.65-8.27,7.15-11.74,7.05c-4.57-0.12-10.28-2.55-12.35-6.93l-0.37-0.78l-4.28,2l0.37,0.79
		c3.14,6.68,10.59,9.23,16.5,9.4c3.8,0.1,16.24-0.41,16.61-11.34C358.47,29.14,350.23,27.32,342.97,25.72"/>
	<path style="fill:#fff;" d="M439.95,25.72l-0.43-0.09c-6.73-1.45-11.14-2.7-11.02-6.8c0.19-6.84,10-6.76,11.11-6.73
		c4.21,0.17,8.45,0.91,10.94,5.18l0.43,0.73l4.04-2.24l-0.49-0.78c-3.74-5.92-8.61-7.25-14.78-7.42
		c-5.37-0.15-10.24,1.37-13.02,4.05c-1.95,1.88-2.95,4.31-2.97,7.18c-0.22,7.92,7.77,9.71,14.82,11.29
		c7.3,1.6,12.07,3.02,11.89,7.82c-0.18,6.65-8.27,7.15-11.74,7.05c-4.57-0.12-10.28-2.55-12.35-6.93L426,37.25l-4.29,2l0.37,0.79
		c3.14,6.68,10.59,9.23,16.5,9.4c3.8,0.1,16.24-0.41,16.61-11.34C455.45,29.14,447.21,27.32,439.95,25.72"/>
	<rect x="367.58" y="8.17" style="fill:#fff;" width="4.69" height="40.71"/>
	<path style="fill:#fff;" d="M401.3,12.13c4.4,0,8.49,1.67,11.52,4.7l0.57,0.57l3.38-2.92l-0.66-0.66c-3.93-3.94-9.2-6.1-14.81-6.1
		c-6.12,0-11.35,2.01-15.1,5.8c-3.81,3.85-5.88,9.26-5.81,15.22c0.05,10.24,6.54,20.58,20.91,20.58c5.62,0,10.88-2.17,14.81-6.1
		l0.63-0.63l-3.26-3.08l-0.6,0.59c-3.04,2.99-7.26,4.7-11.58,4.7c-11.87,0-16.19-8.71-16.28-16.17c-0.03-4.83,1.57-9.12,4.52-12.08
		C392.42,13.66,396.48,12.13,401.3,12.13"/>
</g>
<g>
	<polygon style="fill:#fff;" points="96.58,58.77 104.82,58.77 104.82,59.86 101.33,59.86 101.33,69.36 100.07,69.36 100.07,59.86
		96.58,59.86 	"/>
	<rect x="109.35" y="58.77" style="fill:#fff;" width="1.26" height="10.58"/>
	<polygon style="fill:#fff;" points="123.91,61.24 120.6,67.42 117.3,61.24 117.3,69.36 116.05,69.36 116.05,58.77 117.25,58.77
		120.6,65.03 123.94,58.77 125.15,58.77 125.15,69.36 123.91,69.36 	"/>
	<polygon style="fill:#fff;" points="130.58,58.77 137.42,58.77 137.42,59.86 131.84,59.86 131.84,63.5 136.66,63.5 136.66,64.59
		131.84,64.59 131.84,68.27 137.42,68.27 137.42,69.36 130.58,69.36 	"/>
	<path style="fill:#fff;" d="M150.04,66.56c0-0.64,0.17-1.2,0.51-1.7c0.34-0.49,0.95-0.99,1.84-1.49c-0.42-0.47-0.7-0.82-0.85-1.06
		c-0.15-0.24-0.27-0.49-0.36-0.75s-0.13-0.53-0.13-0.81c0-0.74,0.24-1.31,0.72-1.73c0.48-0.41,1.15-0.62,2.01-0.62
		c0.8,0,1.43,0.2,1.88,0.62c0.46,0.41,0.69,0.98,0.69,1.72c0,0.53-0.17,1.01-0.5,1.46s-0.89,0.9-1.66,1.35l3,2.89
		c0.28-0.31,0.5-0.66,0.66-1.07c0.16-0.41,0.3-0.86,0.42-1.35h1.24c-0.33,1.41-0.84,2.48-1.51,3.2l2.21,2.15h-1.69l-1.36-1.31
		c-0.58,0.52-1.17,0.9-1.77,1.12c-0.6,0.23-1.27,0.34-2.01,0.34c-1.06,0-1.88-0.26-2.46-0.78C150.33,68.2,150.04,67.48,150.04,66.56
		 M153.4,68.4c1.18,0,2.17-0.38,2.95-1.14l-3.23-3.13c-0.55,0.33-0.93,0.61-1.16,0.83c-0.23,0.22-0.39,0.45-0.5,0.71
		c-0.11,0.25-0.16,0.54-0.16,0.85c0,0.58,0.19,1.03,0.57,1.37C152.26,68.24,152.77,68.4,153.4,68.4 M152.26,60.71
		c0,0.34,0.09,0.66,0.27,0.97c0.18,0.31,0.48,0.68,0.91,1.11c0.64-0.37,1.08-0.71,1.33-1.02s0.37-0.67,0.37-1.08
		c0-0.38-0.13-0.69-0.38-0.93s-0.59-0.36-1.01-0.36c-0.44,0-0.79,0.12-1.07,0.36C152.39,60,152.26,60.32,152.26,60.71"/>
	<polygon style="fill:#fff;" points="172.48,58.77 179.31,58.77 179.31,59.86 173.73,59.86 173.73,63.5 178.56,63.5 178.56,64.59
		173.73,64.59 173.73,68.27 179.31,68.27 179.31,69.36 172.48,69.36 	"/>
	<polygon style="fill:#fff;" points="187.76,65.09 184.96,69.36 183.54,69.36 187.06,64.09 183.54,58.77 185.04,58.77 187.8,63.04
		190.62,58.77 192.04,58.77 188.52,64.03 192.04,69.36 190.54,69.36 	"/>
	<path style="fill:#fff;" d="M196.72,58.77h3.98c2.06,0,3.39,1.01,3.39,3.28c0,2.28-1.33,3.3-3.39,3.3h-2.72v4.01h-1.26V58.77z
		 M197.97,64.26h2.69c1.3,0,2.13-0.65,2.13-2.21c0-1.54-0.85-2.19-2.13-2.19h-2.69V64.26z"/>
	<polygon style="fill:#fff;" points="208.92,58.77 215.75,58.77 215.75,59.86 210.17,59.86 210.17,63.5 214.99,63.5 214.99,64.59
		210.17,64.59 210.17,68.27 215.75,68.27 215.75,69.36 208.92,69.36 	"/>
	<polygon style="fill:#fff;" points="221.99,61.06 221.99,69.36 220.73,69.36 220.73,58.77 221.91,58.77 227.37,67.06 227.37,58.77
		228.63,58.77 228.63,69.36 227.45,69.36 	"/>
	<path style="fill:#fff;" d="M238.65,64.79l-2.01-0.38c-1.65-0.32-2.63-1.23-2.63-2.81c0-1.95,1.36-2.98,3.75-2.98s3.75,1.06,3.75,3.19
		v0.14h-1.24v-0.14c0-1.39-0.88-2.1-2.51-2.1c-1.63,0-2.46,0.62-2.46,1.81c0,0.98,0.64,1.54,1.65,1.74l2,0.38
		c1.69,0.32,2.65,1.21,2.65,2.79c0,2.04-1.44,3.07-3.84,3.07c-2.39,0-3.83-1.07-3.83-3.19v-0.13h1.25v0.13c0,1.39,0.94,2.1,2.57,2.1
		c1.65,0,2.55-0.62,2.55-1.9C240.29,65.53,239.66,64.99,238.65,64.79"/>
	<polygon style="fill:#fff;" points="246.87,58.77 253.7,58.77 253.7,59.86 248.12,59.86 248.12,63.5 252.94,63.5 252.94,64.59
		248.12,64.59 248.12,68.27 253.7,68.27 253.7,69.36 246.87,69.36 	"/>
	<rect x="258.69" y="67.5" style="fill:#fff;" width="1.33" height="1.86"/>
	<path style="fill:#fff;" d="M273.32,58.77h4.48c1.86,0,2.96,0.94,2.96,2.78c0,1.19-0.48,1.99-1.33,2.43c1,0.38,1.56,1.26,1.56,2.57
		c0,1.85-1.09,2.8-2.96,2.8h-4.7V58.77H273.32z M274.57,63.5h3.01c1.27,0,1.89-0.63,1.89-1.83c0-1.18-0.63-1.81-1.87-1.81h-3.02
		v3.64H274.57z M274.57,68.27h3.23c1.26,0,1.89-0.63,1.89-1.83c0-1.19-0.62-1.84-1.88-1.84h-3.25L274.57,68.27L274.57,68.27z"/>
	<polygon style="fill:#fff;" points="285.96,58.77 292.8,58.77 292.8,59.86 287.22,59.86 287.22,63.5 292.04,63.5 292.04,64.59
		287.22,64.59 287.22,68.27 292.8,68.27 292.8,69.36 285.96,69.36 	"/>
	<polygon style="fill:#fff;" points="296.88,58.77 305.12,58.77 305.12,59.86 301.62,59.86 301.62,69.36 300.37,69.36 300.37,59.86
		296.88,59.86 	"/>
	<polygon style="fill:#fff;" points="308.74,58.77 316.98,58.77 316.98,59.86 313.49,59.86 313.49,69.36 312.23,69.36 312.23,59.86
		308.74,59.86 	"/>
	<polygon style="fill:#fff;" points="321.51,58.77 328.35,58.77 328.35,59.86 322.77,59.86 322.77,63.5 327.59,63.5 327.59,64.59
		322.77,64.59 322.77,68.27 328.35,68.27 328.35,69.36 321.51,69.36 	"/>
	<path style="fill:#fff;" d="M333.33,58.77h4.2c2.06,0,3.39,1.01,3.39,3.28c0,1.71-0.74,2.71-1.98,3.1l2.06,4.2h-1.45l-1.89-4.01h-0.12
		h-2.95v4.01h-1.26L333.33,58.77L333.33,58.77z M334.59,64.26h2.92c1.3,0,2.13-0.65,2.13-2.21c0-1.54-0.85-2.19-2.13-2.19h-2.92
		V64.26z"/>
	<polygon style="fill:#fff;" points="353.01,58.77 361.25,58.77 361.25,59.86 357.76,59.86 357.76,69.36 356.5,69.36 356.5,59.86
		353.01,59.86 	"/>
	<path style="fill:#fff;" d="M373.82,65.71c0,2.43-1.56,3.8-4.11,3.8c-2.53,0-4.08-1.36-4.08-3.8v-3.3c0-2.45,1.56-3.8,4.11-3.8
		c2.53,0,4.08,1.35,4.08,3.8V65.71z M372.57,62.42c0-1.72-1.06-2.71-2.83-2.71c-1.8,0-2.86,0.98-2.86,2.71v3.3
		c0,1.73,1.06,2.71,2.83,2.71c1.8,0,2.86-0.98,2.86-2.71V62.42z"/>
	<path style="fill:#fff;" d="M385.75,66v-0.94h-3.33v-1.09H387v5.38h-0.94l-0.15-1.1c-0.64,0.82-1.69,1.26-3.1,1.26
		c-2.42,0-3.86-1.33-3.86-3.8v-3.27c0-2.51,1.56-3.83,4.08-3.83c2.41,0,3.96,1.1,3.96,3.3v0.11h-1.25v-0.11
		c0-1.41-1.03-2.21-2.71-2.21c-1.77,0-2.83,0.94-2.83,2.74v3.27c0,1.73,1.06,2.71,2.81,2.71C384.72,68.42,385.75,67.53,385.75,66"/>
	<polygon style="fill:#fff;" points="392.32,58.77 399.15,58.77 399.15,59.86 393.57,59.86 393.57,63.5 398.4,63.5 398.4,64.59
		393.57,64.59 393.57,68.27 399.15,68.27 399.15,69.36 392.32,69.36 	"/>
	<polygon style="fill:#fff;" points="403.23,58.77 411.47,58.77 411.47,59.86 407.98,59.86 407.98,69.36 406.72,69.36 406.72,59.86
		403.23,59.86 	"/>
	<polygon style="fill:#fff;" points="422.64,64.59 417.26,64.59 417.26,69.36 416,69.36 416,58.77 417.26,58.77 417.26,63.5 422.64,63.5
		422.64,58.77 423.89,58.77 423.89,69.36 422.64,69.36 	"/>
	<polygon style="fill:#fff;" points="429.33,58.77 436.17,58.77 436.17,59.86 430.59,59.86 430.59,63.5 435.41,63.5 435.41,64.59
		430.59,64.59 430.59,68.27 436.17,68.27 436.17,69.36 429.33,69.36 	"/>
	<path style="fill:#fff;" d="M441.15,58.77h4.2c2.06,0,3.39,1.01,3.39,3.28c0,1.71-0.74,2.71-1.98,3.1l2.06,4.2h-1.45l-1.89-4.01h-0.12
		h-2.95v4.01h-1.26L441.15,58.77L441.15,58.77z M442.41,64.26h2.92c1.3,0,2.13-0.65,2.13-2.21c0-1.54-0.85-2.19-2.13-2.19h-2.92
		V64.26z"/>
	<rect x="453.87" y="67.5" style="fill:#fff;" width="1.33" height="1.86"/>
</g>
</svg>
