<?xml version="1.0" encoding="utf-8"?>
<!-- Generator: Adobe Illustrator 23.0.1, SVG Export Plug-In . SVG Version: 6.00 Build 0)  -->
<svg version="1.1" xmlns="http://www.w3.org/2000/svg" xmlns:xlink="http://www.w3.org/1999/xlink" x="0px" y="0px"
	 viewBox="0 0 100 100" style="enable-background:new 0 0 100 100;" xml:space="preserve">
<path class="st0" d="M50,23.5c-23,0-47.5,7.3-47.5,20.8c0,12,19.3,19.1,39.7,20.5L37,70.1c-1.5,1.5-1.5,3.9,0,5.4
	c0.7,0.7,1.7,1.1,2.7,1.1s1.9-0.4,2.7-1.1L53.7,64c1.5-1.5,1.5-3.9,0-5.4L42.3,47.3c-1.5-1.5-3.9-1.5-5.4,0s-1.5,3.9,0,5.4l4.6,4.6
	C22,55.8,10,49.1,10,44.4c0-5.4,15.6-13.3,39.9-13.3c24.4,0,39.9,7.9,39.9,13.3c0,3.9-8.1,9.4-23.2,11.9c-2.1,0.3-3.4,2.3-3.1,4.4
	c0.5,1.9,2.5,3.3,4.5,3c18.5-3.1,29.5-10.4,29.5-19.4C97.5,30.8,73,23.5,50,23.5z"/>
</svg>
