<?xml version="1.0" encoding="utf-8"?>
<!-- Generator: Adobe Illustrator 23.0.1, SVG Export Plug-In . SVG Version: 6.00 Build 0)  -->
<svg version="1.1" xmlns="http://www.w3.org/2000/svg" xmlns:xlink="http://www.w3.org/1999/xlink" x="0px" y="0px"
	 viewBox="0 0 100 100" style="enable-background:new 0 0 100 100;" xml:space="preserve">
<path class="st0" d="M10.3,82.3h15.5V67.6H10.3V82.3z M12.4,69.7h11.3v10.5H12.4V69.7z"/>
<path class="st0" d="M47.1,54H31.6v28.3h15.5C47.1,82.3,47.1,54,47.1,54z M45,80.2H33.7V56.1H45C45,56.1,45,80.2,45,80.2z"/>
<path class="st0" d="M52.9,82.3h15.5v-40H52.9V82.3z M55,44.4h11.3v35.8H55V44.4z"/>
<path class="st0" d="M74.2,82.3h15.5V28.9H74.2V82.3z M76.3,31h11.3v49.2H76.3V31z"/>
</svg>
