<?xml version="1.0" encoding="utf-8"?>
<!-- Generator: Adobe Illustrator 23.0.1, SVG Export Plug-In . SVG Version: 6.00 Build 0)  -->
<svg version="1.1" xmlns="http://www.w3.org/2000/svg" xmlns:xlink="http://www.w3.org/1999/xlink" x="0px" y="0px"
	 viewBox="0 0 100 100" style="enable-background:new 0 0 100 100;" xml:space="preserve">
<path class="st0" d="M82.9,39.4l-1.5,2.7c8.6,4.8,14,13.9,14,23.7c0,15-12.2,27.1-27.1,27.1c-5.9,0-11.4-1.9-15.9-5.1
	c6.1-5.7,9.5-13.6,9.5-22c0-0.1,0-0.2,0-0.3v-0.2h-3v0.5c0,7.7-3.2,14.9-8.9,20.1c-5.5-5-8.9-12.1-8.9-20.1s3.4-15.1,8.9-20.1
	c4.1,3.7,7,8.6,8.2,14.3c-2.6,0.8-5.4,1.3-8.3,1.3c-1.8,0-3.7-0.2-5.6-0.6l-0.6,3c2.1,0.4,4.2,0.7,6.3,0.7
	c16.6,0,30.2-13.5,30.2-30.2C80.2,17.5,66.6,4,50,4S19.8,17.5,19.8,34.2c0,1.3,0.1,2.5,0.2,3.8C9.2,42.6,1.6,53.3,1.6,65.8
	C1.6,82.5,15.1,96,31.7,96c5.5,0,10.8-1.5,15.5-4.3l-1.6-2.6c-4.2,2.5-9,3.9-13.9,3.9c-15,0-27.1-12.2-27.1-27.1
	s12.2-27.1,27.1-27.1c5.9,0,11.4,1.9,15.9,5.1c-4.3,4-7.4,9.2-8.8,15.1c-6.9-3.1-12.3-9.1-14.7-16.3l-2.9,0.9
	c2.7,8.3,9,15.1,17,18.5c-0.2,1.3-0.3,2.5-0.3,3.8C38.1,82.5,51.6,96,68.3,96s30.2-13.5,30.2-30.2C98.4,54.8,92.5,44.7,82.9,39.4z
	 M61.1,58.9c-1.4-6-4.5-11.2-8.7-15.1c4.5-3.2,9.9-5.1,15.8-5.1c2.8,0,5.6,0.4,8.3,1.3C74.7,48.4,68.9,55.4,61.1,58.9z M31.7,35.6
	c-3,0-6,0.5-8.7,1.3c-0.1-0.9-0.2-1.8-0.2-2.7C22.9,19.2,35,7.1,50,7.1s27.1,12.2,27.1,27.1c0,0.9,0,1.8-0.1,2.7
	c-2.8-0.9-5.8-1.3-8.7-1.3c-6.8,0-13.2,2.3-18.2,6.1C44.9,37.9,38.6,35.6,31.7,35.6z"/>
</svg>
