<?xml version="1.0" encoding="utf-8"?>
<!-- Generator: Adobe Illustrator 23.0.1, SVG Export Plug-In . SVG Version: 6.00 Build 0)  -->
<svg version="1.1" xmlns="http://www.w3.org/2000/svg" xmlns:xlink="http://www.w3.org/1999/xlink" x="0px" y="0px"
	 viewBox="0 0 100 100" style="enable-background:new 0 0 100 100;" xml:space="preserve">
<polygon class="st0" points="36.4,46.8 31.3,51.8 44.9,65.4 68,42.6 63,37.6 45.1,55.5 "/>
<path class="st0" d="M94,49.9c-1.1,0-2.1,0.9-2.1,2.1c0,23.3-19,42.3-42.3,42.3S7.4,75.3,7.4,52c0-22.3,17.4-40.7,39.4-42.2L45,11.2
	c-0.9,0.7-1.1,2-0.4,2.9c0.4,0.5,1,0.8,1.6,0.8c0.4,0,0.9-0.1,1.2-0.4l6.8-5.2c0.5-0.4,0.8-1,0.8-1.7S54.6,6.3,54.1,6l-6.8-4.5
	C46.3,0.8,45,1,44.4,2C43.8,2.9,44,4.2,45,4.8l1.4,0.9C22.3,7.4,3.3,27.5,3.3,52c0,25.6,20.8,46.4,46.4,46.4S96.1,77.6,96.1,52
	C96.1,50.9,95.2,49.9,94,49.9z"/>
<circle class="st0" cx="92.5" cy="41.2" r="2.5"/>
<circle class="st0" cx="89.2" cy="31.9" r="2.5"/>
<circle class="st0" cx="83.2" cy="23.2" r="2.5"/>
<circle class="st0" cx="74.9" cy="15.7" r="2.5"/>
<circle class="st0" cx="65" cy="10.4" r="2.5"/>
</svg>
