<?xml version="1.0" encoding="utf-8"?>
<!-- Generator: Adobe Illustrator 23.0.1, SVG Export Plug-In . SVG Version: 6.00 Build 0)  -->
<svg version="1.1" xmlns="http://www.w3.org/2000/svg" xmlns:xlink="http://www.w3.org/1999/xlink" x="0px" y="0px"
	 viewBox="0 0 100 100" style="enable-background:new 0 0 100 100;" xml:space="preserve">
<path class="st0" d="M89.3,40.1H67.2v-29c0-0.6-0.4-1-1-1h-55c-0.6,0-1,0.4-1,1v69.4c0,5.6,4.6,10.2,10.2,10.2h59.7
	c5.6,0,10.2-4.6,10.2-10.2V41.1C90.3,40.5,89.8,40.1,89.3,40.1z M20.4,88.6c-4.5,0-8.2-3.7-8.2-8.2V12.1h52.9v67.3v0.1
	c0,3.8,1.9,7.1,4.8,9.1H20.4z M88.3,80.5c0,4.5-3.7,8.2-8.2,8.2h-3.6c-0.1,0-0.2,0-0.3,0c-4.9,0-9-4-9-8.9v-0.1V42.1h21.1V80.5z"/>
<path class="st0" d="M55.7,19.9H20.9c-0.6,0-1,0.4-1,1s0.4,1,1,1h34.9c0.6,0,1-0.4,1-1S56.3,19.9,55.7,19.9z"/>
<path class="st0" d="M55.7,31H20.9c-0.6,0-1,0.4-1,1c0,0.6,0.4,1,1,1h34.9c0.6,0,1-0.4,1-1S56.3,31,55.7,31z"/>
<path class="st0" d="M55.7,42.1H20.9c-0.6,0-1,0.4-1,1s0.4,1,1,1h34.9c0.6,0,1-0.4,1-1S56.3,42.1,55.7,42.1z"/>
<path class="st0" d="M55.7,53.2H20.9c-0.6,0-1,0.4-1,1s0.4,1,1,1h34.9c0.6,0,1-0.4,1-1S56.3,53.2,55.7,53.2z"/>
<path class="st0" d="M55.7,64.3H20.9c-0.6,0-1,0.4-1,1s0.4,1,1,1h34.9c0.6,0,1-0.4,1-1S56.3,64.3,55.7,64.3z"/>
<path class="st0" d="M55.7,75.4H20.9c-0.6,0-1,0.4-1,1s0.4,1,1,1h34.9c0.6,0,1-0.4,1-1S56.3,75.4,55.7,75.4z"/>
</svg>
