<?xml version="1.0" encoding="utf-8"?>
<!-- Generator: Adobe Illustrator 23.0.1, SVG Export Plug-In . SVG Version: 6.00 Build 0)  -->
<svg version="1.1" xmlns="http://www.w3.org/2000/svg" xmlns:xlink="http://www.w3.org/1999/xlink" x="0px" y="0px"
	 viewBox="0 0 100 100" style="enable-background:new 0 0 100 100;" xml:space="preserve">
<g>
	<g>
		<path class="st0" d="M75,8.3h-4.2V4.2H29.2v4.2H25c-4.6,0-8.3,3.7-8.3,8.3v66.7c0,4.6,3.7,8.3,8.3,8.3h50c4.6,0,8.3-3.7,8.3-8.3
			V16.7C83.3,12.1,79.6,8.3,75,8.3z M33.3,8.3h33.3v4.2H33.3V8.3z M79.2,83.3c0,2.3-1.9,4.2-4.2,4.2H25c-2.3,0-4.2-1.9-4.2-4.2V16.7
			c0-2.3,1.9-4.2,4.2-4.2h4.2v4.2h41.7v-4.2H75c2.3,0,4.2,1.9,4.2,4.2V83.3z"/>
	</g>
</g>
<path class="st0" d="M47.2,61.1c-0.6,0-1.2-0.3-1.7-0.7L37.3,52c-0.9-0.9-0.9-2.4,0-3.3c0.9-0.9,2.4-0.9,3.3,0l0,0l6.5,6.6
	l14.2-15.6c0.9-0.9,2.3-1,3.3-0.1c1,0.9,1,2.3,0.2,3.3c0,0,0,0,0,0L48.9,60.3C48.4,60.8,47.8,61.1,47.2,61.1"/>
</svg>
