<?xml version="1.0" encoding="utf-8"?>
<!-- Generator: Adobe Illustrator 23.0.1, SVG Export Plug-In . SVG Version: 6.00 Build 0)  -->
<svg version="1.1"
	 xmlns:cc="http://creativecommons.org/ns#" xmlns:dc="http://purl.org/dc/elements/1.1/" xmlns:inkscape="http://www.inkscape.org/namespaces/inkscape" xmlns:rdf="http://www.w3.org/1999/02/22-rdf-syntax-ns#" xmlns:sodipodi="http://sodipodi.sourceforge.net/DTD/sodipodi-0.dtd" xmlns:svg="http://www.w3.org/2000/svg"
	 xmlns="http://www.w3.org/2000/svg" xmlns:xlink="http://www.w3.org/1999/xlink" x="0px" y="0px" viewBox="0 0 100 100"
	 style="enable-background:new 0 0 100 100;" xml:space="preserve">
<g>
	<path class="st0" d="M25.6,17c-2.9,0-5.3,2.4-5.3,5.3v8.8h-8.8c-2.9,0-5.3,2.4-5.3,5.3v9.3v9.1v24.8c0,2.9,2.4,5.3,5.3,5.3h62.9
		c2.9,0,5.3-2.4,5.3-5.3v-8.8h8.8c2.9,0,5.3-2.4,5.3-5.3V22.3c0-2.9-2.4-5.3-5.3-5.3L25.6,17z M25.6,20.1h62.9c1.2,0,2.2,1,2.2,2.2
		v43.3c0,1.2-0.9,2.2-2.2,2.2h-8.8V54.8v-9.1v-9.3v0c0-0.4,0-0.7-0.1-1.1c-0.4-2.1-2.1-3.7-4.1-4.1c-0.3-0.1-0.7-0.1-1.1-0.1h-51
		v-8.8C23.4,21.1,24.3,20.1,25.6,20.1L25.6,20.1z M11.5,34.2h62.9c1.2,0,2.2,1,2.2,2.2v7.8H9.3v-7.8C9.3,35.2,10.3,34.2,11.5,34.2z
		 M9.3,47.3h67.3v6H9.3V47.3z M9.3,56.4h67.3v12.9v10.3c0,1.2-1,2.2-2.2,2.2H11.5c-1.2,0-2.2-1-2.2-2.2V56.4z M55.4,63.2
		c-0.9,0-1.6,0.7-1.6,1.6v8.1c0,0.9,0.7,1.6,1.6,1.6h11.3c0.9,0,1.6-0.7,1.6-1.6v-8.1c0-0.9-0.7-1.6-1.6-1.6c0,0,0,0,0,0H55.4z
		 M19.3,64.5c-0.9,0-1.6,0.7-1.6,1.6c0,0.9,0.7,1.6,1.6,1.6h16.4c0.9,0,1.6-0.7,1.6-1.6c0-0.9-0.7-1.6-1.6-1.6H19.3z M56.9,66.3h8.1
		v5h-8.1V66.3z M19.3,71.5c-0.9,0-1.6,0.7-1.6,1.5s0.7,1.6,1.5,1.6c0,0,0,0,0.1,0h7c0.9,0,1.6-0.7,1.6-1.5c0-0.9-0.7-1.6-1.5-1.6
		c0,0,0,0-0.1,0H19.3z"/>
</g>
</svg>
