<?xml version="1.0" encoding="utf-8"?>
<!-- Generator: Adobe Illustrator 23.0.1, SVG Export Plug-In . SVG Version: 6.00 Build 0)  -->
<svg version="1.1" xmlns="http://www.w3.org/2000/svg" xmlns:xlink="http://www.w3.org/1999/xlink" x="0px" y="0px"
	 viewBox="0 0 100 100" style="enable-background:new 0 0 100 100;" xml:space="preserve">
<path class="st0" d="M25,35V25C25,11.2,36.2,0,50,0s25,11.2,25,25v10h2.5C84.4,35,90,40.6,90,47.5v40c0,6.9-5.6,12.5-12.5,12.5h-55
	C15.6,100,10,94.4,10,87.5v-40C10,40.6,15.6,35,22.5,35H25z M22.5,40c-4.1,0-7.5,3.4-7.5,7.5v40c0,4.1,3.4,7.5,7.5,7.5h55
	c4.1,0,7.5-3.4,7.5-7.5v-40c0-4.1-3.4-7.5-7.5-7.5H22.5z M70,25c0-11-9-20-20-20s-20,9-20,20v10h40V25z"/>
<path class="st0" d="M47.2,79.1c-0.6,0-1.2-0.3-1.7-0.7L37.3,70c-0.9-0.9-0.9-2.4,0-3.3s2.4-0.9,3.3,0l0,0l6.5,6.6l14.2-15.6
	c0.9-0.9,2.3-1,3.3-0.1c1,0.9,1,2.3,0.2,3.3c0,0,0,0,0,0L48.9,78.3C48.4,78.8,47.8,79.1,47.2,79.1"/>
</svg>
