<?xml version="1.0" encoding="utf-8"?>
<!-- Generator: Adobe Illustrator 23.0.1, SVG Export Plug-In . SVG Version: 6.00 Build 0)  -->
<svg version="1.1" xmlns="http://www.w3.org/2000/svg" xmlns:xlink="http://www.w3.org/1999/xlink" x="0px" y="0px"
	 viewBox="0 0 100 100" style="enable-background:new 0 0 100 100;" xml:space="preserve">
<path class="st0" d="M50,20.8c6.9,0,12.5,5.6,12.5,12.5S56.9,45.8,50,45.8s-12.5-5.6-12.5-12.5C37.5,26.4,43.1,20.8,50,20.8
	 M50,16.7c-9.2,0-16.7,7.5-16.7,16.7S40.8,50,50,50s16.7-7.5,16.7-16.7S59.2,16.7,50,16.7z M70.8,62.5c4.6,0,8.3,3.7,8.3,8.3V75
	c0,2.3-1.9,4.2-4.2,4.2H25c-2.3,0-4.2-1.9-4.2-4.2v-4.2c0-4.6,3.7-8.3,8.3-8.3H70.8 M70.8,58.3H29.2c-6.9,0-12.5,5.6-12.5,12.5V75
	c0,4.6,3.7,8.3,8.3,8.3h50c4.6,0,8.3-3.7,8.3-8.3v-4.2C83.3,63.9,77.7,58.3,70.8,58.3z M75,72.9c0-1.1-0.9-2.1-2.1-2.1c0,0,0,0,0,0
	H60.4c-1.2,0-2.1,0.9-2.1,2.1s0.9,2.1,2.1,2.1h12.5C74.1,75,75,74.1,75,72.9C75,72.9,75,72.9,75,72.9z"/>
</svg>
