<?xml version="1.0" encoding="utf-8"?>
<!-- Generator: Adobe Illustrator 23.0.1, SVG Export Plug-In . SVG Version: 6.00 Build 0)  -->
<svg version="1.1" xmlns="http://www.w3.org/2000/svg" xmlns:xlink="http://www.w3.org/1999/xlink" x="0px" y="0px"
	 viewBox="0 0 100 100" style="enable-background:new 0 0 100 100;" xml:space="preserve">
<g>
	<path class="st0" d="M81.5,96.9h-3.8c-1.7,0-3.1-1.4-3.1-3.1l0,0c0-1.7,1.4-3.1,3.1-3.1h3.8c5,0,9.1-4.1,9.1-9.1c0-0.1,0-0.2,0-0.3
		V43.4c-0.1-5-4.1-9-9.1-9h-63c-5,0-9,4-9.1,9v37.9c-0.1,5,3.8,9.2,8.9,9.4c0.1,0,0.2,0,0.3,0h29.4c1.7,0,3.1,1.4,3.1,3.1l0,0
		c0,1.7-1.4,3.1-3.1,3.1H18.5C10,96.9,3.1,90,3.1,81.5c0-0.1,0-0.2,0-0.3V43.4c0.1-8.4,6.9-15.3,15.4-15.2h63
		c8.4,0,15.3,6.8,15.4,15.2v37.9c0.1,8.5-6.6,15.5-15.1,15.6C81.7,96.9,81.6,96.9,81.5,96.9z"/>
	<path class="st0" d="M50,46.8L50,46.8c1.7,0,3.1,1.4,3.1,3.1v25c0,1.7-1.4,3.1-3.1,3.1l0,0c-1.7,0-3.1-1.4-3.1-3.1v-25
		C46.9,48.1,48.3,46.8,50,46.8z"/>
	<path class="st0" d="M37.5,59.2h25c1.7,0,3.1,1.4,3.1,3.1l0,0c0,1.7-1.4,3.1-3.1,3.1h-25c-1.7,0-3.1-1.4-3.1-3.1l0,0
		C34.4,60.6,35.8,59.2,37.5,59.2z"/>
	<path class="st0" d="M68.8,34.4H31.2V21.9c0-10.4,8.4-18.8,18.8-18.8s18.8,8.4,18.8,18.8V34.4z M37.5,28.1h25v-6.2
		C62.5,15,56.9,9.4,50,9.4S37.5,15,37.5,21.9V28.1z"/>
</g>
</svg>
