<?xml version="1.0" encoding="utf-8"?>
<!-- Generator: Adobe Illustrator 23.0.1, SVG Export Plug-In . SVG Version: 6.00 Build 0)  -->
<svg version="1.1" xmlns="http://www.w3.org/2000/svg" xmlns:xlink="http://www.w3.org/1999/xlink" x="0px" y="0px"
	 viewBox="0 0 100 100" style="enable-background:new 0 0 100 100;" xml:space="preserve">
<g>
	<path class="st0" d="M70.7,25.6c0.3,0.5,0.8,0.8,1.3,0.8c0.3,0,0.5-0.1,0.7-0.2c0.7-0.4,1-1.3,0.6-2C72,22,70.4,20,68.5,18.4
		c-0.6-0.5-1.6-0.5-2.1,0.2c-0.5,0.6-0.5,1.6,0.2,2.1C68.2,22.1,69.6,23.7,70.7,25.6z"/>
	<path class="st0" d="M27.3,78.8c-2.5-0.7-4.7-1.4-6.7-2.3c-0.8-0.3-1.6,0-2,0.8c-0.3,0.8,0,1.6,0.8,2c2.1,0.9,4.5,1.7,7.1,2.4
		c0.1,0,0.3,0.1,0.4,0.1c0.7,0,1.3-0.4,1.4-1.1C28.6,79.8,28.1,79,27.3,78.8z"/>
	<path class="st0" d="M36.9,26.3c1.5-1.5,3.3-2.8,5.3-3.7c0.8-0.4,1.1-1.2,0.7-2c0,0,0,0,0-0.1c-0.4-0.7-1.2-1-2-0.7
		c-2.3,1.1-4.4,2.5-6.1,4.3c-0.6,0.6-0.6,1.5,0,2.1l0,0c0.3,0.3,0.7,0.4,1,0.4C36.3,26.7,36.7,26.6,36.9,26.3z"/>
	<path class="st0" d="M67,52.9c6.8-8.5,6.2-20.9-1.6-28.7c-4-4-9.3-6.2-14.9-6.3c-0.8,0-1.4,0.6-1.5,1.4v0.1c0,0.8,0.6,1.5,1.5,1.5
		c4.8,0.1,9.4,2,12.8,5.4c7.2,7.2,7.2,19,0.1,26.2L50.2,65.7L36.9,52.5C31.5,47.1,30,39,33,32c0.3-0.7,0-1.6-0.7-1.9c0,0,0,0-0.1,0
		c-0.8-0.3-1.6,0-2,0.8C27,38.3,28.1,46.8,33.1,53C17.9,55.5,8.5,61.2,8.5,68c0,2.7,1.5,5.3,4.4,7.6c0.3,0.2,0.6,0.3,0.9,0.3
		c0.4,0,0.9-0.2,1.2-0.6c0.5-0.6,0.4-1.6-0.2-2.1c-2.1-1.7-3.2-3.5-3.2-5.2c0-5.2,9.8-10.3,23.7-12.4c0.1,0,0.3-0.1,0.4-0.1L49,68.9
		c0.3,0.3,0.7,0.4,1.1,0.4s0.8-0.1,1.1-0.4l13.4-13.4c0.1,0,0.2,0,0.2,0.1c14,2.1,23.7,7.2,23.7,12.4c0,6.5-15.5,13.5-38.5,13.5
		c-4.8,0-9.6-0.3-14-1c-0.8-0.1-1.6,0.5-1.7,1.3c-0.1,0.8,0.5,1.6,1.3,1.7c4.6,0.7,9.5,1,14.5,1c23.3,0,41.5-7.2,41.5-16.5
		C91.5,61.2,82.1,55.5,67,52.9z"/>
	<path class="st0" d="M36,63.8c0.4,0,0.8-0.1,1.1-0.4c0.6-0.6,0.6-1.5,0-2.1L33.8,58c-0.6-0.6-1.5-0.6-2.1,0s-0.6,1.5,0,2.1l3.3,3.3
		C35.2,63.6,35.6,63.8,36,63.8z"/>
	<path class="st0" d="M42.3,70.1c0.4,0,0.8-0.1,1.1-0.4c0.6-0.6,0.6-1.5,0-2.1l-1.9-1.9c-0.6-0.6-1.5-0.6-2.1,0s-0.6,1.5,0,2.1
		l1.9,1.9C41.5,70,41.9,70.1,42.3,70.1z"/>
	<path class="st0" d="M75.2,41.5c-0.1,0.8,0.5,1.6,1.3,1.6h0.1c0.8,0,1.4-0.6,1.5-1.4c0.4-4.1-0.2-8.2-1.8-12
		c-0.3-0.8-1.2-1.1-2-0.8c-0.8,0.3-1.1,1.2-0.8,2C75,34.2,75.6,37.9,75.2,41.5z"/>
	<path class="st0" d="M49.9,50.5c6.4,0,11.6-5.2,11.6-11.6s-5.2-11.6-11.6-11.6s-11.6,5.2-11.6,11.6S43.5,50.5,49.9,50.5z
		 M49.9,30.3c4.8,0,8.6,3.9,8.6,8.6s-3.9,8.6-8.6,8.6s-8.6-3.9-8.6-8.6S45.1,30.3,49.9,30.3z"/>
</g>
</svg>
