<?xml version="1.0" encoding="utf-8"?>
<!-- Generator: Adobe Illustrator 23.0.1, SVG Export Plug-In . SVG Version: 6.00 Build 0)  -->
<svg version="1.1" xmlns="http://www.w3.org/2000/svg" xmlns:xlink="http://www.w3.org/1999/xlink" x="0px" y="0px"
	 viewBox="0 0 100 100" style="enable-background:new 0 0 100 100;" xml:space="preserve">
<g>
	<path class="st4" d="M50,5C25.2,5,5,25.2,5,50s20.2,45,45,45s45-20.2,45-45S74.8,5,50,5z M52,34c5.7-0.2,11.3-1.1,16.6-2.7
		c2,5.3,3.1,10.9,3.3,16.8H52V34z M52,30V9.1c6.4,4.5,11.6,11,15.1,18.4C62.3,29,57.2,29.8,52,30z M48,9.1V30
		c-5.2-0.2-10.3-1-15.1-2.4C36.4,20.1,41.6,13.7,48,9.1z M48,34v14H28.1c0.2-5.8,1.4-11.5,3.3-16.8C36.7,32.9,42.3,33.8,48,34z
		 M24.1,48h-15c0.4-8.7,3.5-16.6,8.5-23c3.1,2,6.4,3.6,9.9,5C25.5,35.6,24.3,41.7,24.1,48z M24.1,52c0.2,6.3,1.4,12.4,3.5,18.1
		c-3.5,1.3-6.9,3-9.9,5c-5-6.4-8.1-14.4-8.5-23H24.1z M28.1,52H48v14c-5.7,0.2-11.3,1.1-16.6,2.7C29.4,63.5,28.3,57.8,28.1,52z
		 M48,70v20.8c-6.4-4.5-11.6-11-15.1-18.4C37.7,71,42.8,70.2,48,70z M52,90.9V70c5.2,0.2,10.3,1,15.1,2.4
		C63.6,79.9,58.4,86.3,52,90.9z M52,66V52h19.9c-0.2,5.8-1.4,11.5-3.3,16.8C63.3,67.1,57.7,66.2,52,66z M75.9,52h15
		c-0.4,8.7-3.5,16.6-8.5,23c-3.1-2-6.4-3.6-9.9-5C74.6,64.4,75.7,58.3,75.9,52z M75.9,48c-0.2-6.3-1.4-12.4-3.5-18.1
		c3.5-1.3,6.9-3,9.9-5c5,6.4,8.1,14.4,8.5,23L75.9,48L75.9,48z M79.8,21.9c-2.8,1.7-5.7,3.2-8.8,4.4c-2.8-6.1-6.6-11.6-11.4-16.1
		C67.4,12,74.4,16.2,79.8,21.9z M40.5,10.1c-4.8,4.5-8.6,10-11.4,16.1c-3.1-1.2-6.1-2.6-8.8-4.4C25.6,16.2,32.6,12,40.5,10.1z
		 M20.2,78.1c2.8-1.7,5.7-3.2,8.8-4.4c2.8,6.1,6.6,11.6,11.4,16.1C32.6,88,25.6,83.8,20.2,78.1z M59.5,89.9
		c4.8-4.5,8.6-10,11.4-16.1c3.1,1.2,6.1,2.6,8.8,4.4C74.4,83.8,67.4,88,59.5,89.9z"/>
</g>
</svg>
