<?xml version="1.0" encoding="utf-8"?>
<!-- Generator: Adobe Illustrator 24.2.3, SVG Export Plug-In . SVG Version: 6.00 Build 0)  -->
<svg version="1.1" id="Layer_1" xmlns="http://www.w3.org/2000/svg" xmlns:xlink="http://www.w3.org/1999/xlink" x="0px" y="0px"
	 viewBox="0 0 100 100" style="enable-background:new 0 0 100 100;" xml:space="preserve">
<path d="M78.9,25.9L78.9,25.9c0-0.1,0-0.2,0-0.4c-0.1-0.6-0.5-1-1-1.3c-1.1-1.2-3.5-3.6-8.6-8.7l-9-9c-0.1-0.1-0.1-0.1-0.2-0.2
	c0,0,0,0-0.1,0s-0.1-0.1-0.2-0.1h-0.1c-0.1,0-0.1,0-0.2-0.1c-0.1,0-0.2,0-0.4,0H22.9c-1,0-1.8,0.8-1.8,1.8v84.4
	c0,0.7,0.4,1.3,1.1,1.7c0.6,0.2,1.4,0.1,1.9-0.2l4.2-3.9l4.2,3.7c0.7,0.6,1.7,0.6,2.4,0l4.2-3.7l4.2,3.7c0.7,0.6,1.7,0.6,2.4,0
	l4.2-3.7l4.2,3.7c0.7,0.6,1.7,0.6,2.4,0l4.2-3.7l4.2,3.7c0.7,0.6,1.7,0.6,2.4,0l4.2-3.7l4.2,3.7c0.4,0.2,0.7,0.5,1.2,0.5
	c0.2,0,0.5,0,0.7-0.1c0.6-0.2,1.1-1,1.1-1.7V25.9L78.9,25.9L78.9,25.9z M72.8,24.1H60.8V12.1C64.2,15.5,69.4,20.7,72.8,24.1z
	 M72.9,86c-0.7-0.6-1.7-0.6-2.4,0l-4.2,3.7L62.1,86c-0.7-0.6-1.7-0.6-2.4,0l-4.2,3.7L51.2,86c-0.7-0.6-1.7-0.6-2.4,0l-4.2,3.7
	L40.4,86c-0.7-0.6-1.7-0.6-2.4,0l-4.2,3.7L29.5,86c-0.4-0.4-0.7-0.5-1.2-0.5s-0.8,0.1-1.2,0.5l-2.4,2.2V9.6h32.5v16.3
	c0,1,0.8,1.8,1.8,1.8h16.3v60.5L72.9,86z M69.9,77.7c0,1-0.8,1.8-1.8,1.8H31.9c-1,0-1.8-0.8-1.8-1.8s0.8-1.8,1.8-1.8h36.2
	C69,75.9,69.9,76.8,69.9,77.7z M57,51.9c-0.7-0.7-1.4-1.3-2.4-1.8s-2.3-1.1-4-1.7c-1.7-0.6-2.9-1.3-3.6-2c-0.7-0.7-1.1-1.7-1.1-2.8
	c0-1.3,0.4-2.3,1.1-3c0.7-0.7,1.7-1.1,3-1.1s2.3,0.5,3.1,1.4c0.7,1,1.1,2.3,1.1,4H59c0-2.7-0.6-4.7-1.9-6.4c-1.3-1.7-3-2.7-5.4-3
	v-4.5h-3.3v4.5c-2.3,0.2-4.1,1.1-5.5,2.5c-1.3,1.4-2,3.3-2,5.4c0,3.3,1.6,5.8,4.7,7.5c1,0.5,2.3,1.1,4,1.7c1.7,0.6,2.9,1.2,3.6,2
	c0.7,0.7,1.1,1.7,1.1,2.8c0,1.2-0.4,2.2-1.2,2.9c-0.8,0.7-1.9,1.1-3.5,1.1c-1.6,0-2.8-0.5-3.6-1.3c-0.8-1-1.3-2.2-1.3-3.9h-4.8
	c0,2.7,0.7,4.8,2.2,6.4c1.4,1.6,3.5,2.5,6.1,2.9v3.7h3.1v-3.9c2.5-0.2,4.5-1.1,5.8-2.5c1.3-1.4,2-3.3,2-5.5c0-1.2-0.2-2.3-0.6-3.1
	C58.2,53.4,57.7,52.7,57,51.9z"/>
</svg>
