<?xml version="1.0" encoding="utf-8"?>
<!-- Generator: Adobe Illustrator 23.0.1, SVG Export Plug-In . SVG Version: 6.00 Build 0)  -->
<svg version="1.1"
	 xmlns:cc="http://creativecommons.org/ns#" xmlns:dc="http://purl.org/dc/elements/1.1/" xmlns:inkscape="http://www.inkscape.org/namespaces/inkscape" xmlns:rdf="http://www.w3.org/1999/02/22-rdf-syntax-ns#" xmlns:sodipodi="http://sodipodi.sourceforge.net/DTD/sodipodi-0.dtd" xmlns:svg="http://www.w3.org/2000/svg"
	 xmlns="http://www.w3.org/2000/svg" xmlns:xlink="http://www.w3.org/1999/xlink" x="0px" y="0px" viewBox="0 0 100 100"
	 style="enable-background:new 0 0 100 100;" xml:space="preserve">
<style type="text/css">
	.st0{fill-rule:evenodd;clip-rule:evenodd;}
</style>
<g transform="translate(0,-952.36218)">
	<path class="st0" d="M56.8,1036.4c-1.1,0-2-1-1.9-2.1c0-1,0.8-1.8,1.7-1.9c17.7-2.8,31-17.3,31-34.8c0-4.4-0.8-8.5-2.3-12.4
		c-0.4-1,0.1-2.2,1.1-2.6c1-0.4,2.2,0.1,2.6,1.1c0,0,0,0,0,0.1c1.7,4.3,2.6,9,2.6,13.8c0,19.5-14.9,35.7-34.4,38.7
		C57.1,1036.4,56.9,1036.4,56.8,1036.4L56.8,1036.4z"/>
	<path class="st0" d="M81,976.4c-0.6,0-1.1-0.3-1.5-0.7c-6.8-8.1-17.3-13.3-29.1-13.3c-11.8,0-22.2,5.2-29,13.3
		c-0.7,0.9-2,1-2.8,0.3c-0.9-0.7-1-2-0.3-2.8c0,0,0,0,0,0c7.6-9,19.2-14.7,32.1-14.7c13,0,24.6,5.7,32.1,14.7
		c0.7,0.8,0.6,2.1-0.2,2.8C82,976.2,81.5,976.4,81,976.4z"/>
	<path class="st0" d="M44.3,1036.5c-0.1,0-0.2,0-0.3,0c-19.6-2.9-34.7-19.2-34.7-38.8c0-4.8,0.9-9.3,2.5-13.5c0.4-1,1.5-1.6,2.6-1.2
		c1,0.4,1.6,1.5,1.2,2.6c0,0,0,0,0,0c-1.4,3.8-2.2,7.8-2.2,12.1c0,17.6,13.5,32.2,31.3,34.8c1.1,0.1,1.9,1.2,1.7,2.3
		C46.2,1035.7,45.3,1036.4,44.3,1036.5L44.3,1036.5z"/>
	<path class="st0" d="M28.7,999.5c-0.9-0.1-1.8-0.9-1.9-1.8c-0.1-0.9,0.6-1.9,1.5-2.1l9.3-2.3L7.1,976.9c-1-0.5-1.4-1.8-0.9-2.7
		s1.8-1.3,2.8-0.8L40.1,990l-2.5-9.2c-0.4-1,0.3-2.3,1.3-2.6s2.3,0.5,2.5,1.5l3.6,13.5c0.4,1.3-0.2,2.4-1.3,2.8l-14.4,3.5
		C29.1,999.5,28.9,999.5,28.7,999.5L28.7,999.5z"/>
	<path class="st0" d="M71.1,999.5c-0.1,0-0.2,0-0.3-0.1l-14.4-3.5c-1.1-0.3-1.7-1.3-1.5-2.4c0,0,0,0,0-0.1l3.7-13.8
		c0.3-1.1,1.4-1.7,2.5-1.4s1.7,1.4,1.4,2.5l0,0L60,990l31.1-16.6c1-0.5,2.2-0.2,2.7,0.7s0.2,2.2-0.7,2.7c0,0-0.1,0-0.1,0.1
		l-30.5,16.3l9.3,2.3c1.1,0.3,1.7,1.4,1.4,2.4c-0.2,0.9-1,1.5-1.9,1.5C71.2,999.5,71.2,999.5,71.1,999.5L71.1,999.5z"/>
	<path class="st0" d="M50.4,1046.4c-1,0-2-1-2-2l0-33.4l-7.2,6.8c-0.8,0.7-2.1,0.7-2.8-0.1c-0.7-0.8-0.7-2.1,0.1-2.8l10.6-9.9
		c0.9-0.9,2.1-0.6,2.8,0l10.5,10.1c0.6,0.5,0.8,1.5,0.5,2.2c-0.3,0.7-1.1,1.3-1.9,1.2c-0.5,0-1-0.2-1.4-0.6l-7.1-6.8l0,33.3
		C52.5,1045.4,51.5,1046.4,50.4,1046.4L50.4,1046.4z"/>
</g>
</svg>
