<?xml version="1.0" encoding="utf-8"?>
<!-- Generator: Adobe Illustrator 24.2.3, SVG Export Plug-In . SVG Version: 6.00 Build 0)  -->
<svg version="1.1" id="Layer_1" xmlns="http://www.w3.org/2000/svg" xmlns:xlink="http://www.w3.org/1999/xlink" x="0px" y="0px"
	 viewBox="0 0 100 100" style="enable-background:new 0 0 100 100;" xml:space="preserve">
<g>
	<g>
		<path d="M78.9,25.9L78.9,25.9c0-0.1,0-0.2,0-0.4c-0.1-0.6-0.5-1-1-1.3c-1.1-1.2-3.5-3.6-8.6-8.7l-9-9c-0.1-0.1-0.1-0.1-0.2-0.2
			c0,0,0,0-0.1,0s-0.1-0.1-0.2-0.1h-0.1c-0.1,0-0.1,0-0.2-0.1c-0.1,0-0.2,0-0.4,0H22.9c-1,0-1.8,0.8-1.8,1.8v84.4
			c0,0.7,0.4,1.3,1.1,1.7c0.6,0.2,1.4,0.1,1.9-0.2l4.2-3.9l4.2,3.7c0.7,0.6,1.7,0.6,2.4,0l4.2-3.7l4.2,3.7c0.7,0.6,1.7,0.6,2.4,0
			l4.2-3.7l4.2,3.7c0.7,0.6,1.7,0.6,2.4,0l4.2-3.7l4.2,3.7c0.7,0.6,1.7,0.6,2.4,0l4.2-3.7l4.2,3.7c0.4,0.2,0.7,0.5,1.2,0.5
			c0.2,0,0.5,0,0.7-0.1c0.6-0.2,1.1-1,1.1-1.7V25.9L78.9,25.9L78.9,25.9z M72.8,24.1H60.8V12.1C64.2,15.5,69.4,20.7,72.8,24.1z
			 M72.9,86c-0.7-0.6-1.7-0.6-2.4,0l-4.2,3.7L62.1,86c-0.7-0.6-1.7-0.6-2.4,0l-4.2,3.7L51.2,86c-0.7-0.6-1.7-0.6-2.4,0l-4.2,3.7
			L40.4,86c-0.7-0.6-1.7-0.6-2.4,0l-4.2,3.7L29.5,86c-0.4-0.4-0.7-0.5-1.2-0.5s-0.8,0.1-1.2,0.5l-2.4,2.2V9.6h32.5v16.3
			c0,1,0.8,1.8,1.8,1.8h16.3v60.5L72.9,86z M69.9,77.7c0,1-0.8,1.8-1.8,1.8H31.9c-1,0-1.8-0.8-1.8-1.8s0.8-1.8,1.8-1.8h36.2
			C69,75.9,69.9,76.8,69.9,77.7z"/>
	</g>
</g>
<g>
	<g>
		<path d="M50,66c7.5,0,13.6-6,13.6-13.6s-6-13.6-13.6-13.6s-13.6,6-13.6,13.6S42.5,66,50,66z M50,40.6c6.5,0,11.8,5.3,11.8,11.8
			S56.5,64.2,50,64.2s-11.8-5.3-11.8-11.8S43.5,40.6,50,40.6z"/>
		<path d="M50,66.5c-7.8,0-14.1-6.3-14.1-14.1c0-7.9,6.2-14.1,14.1-14.1c7.9,0,14.1,6.2,14.1,14.1C64.1,60.2,57.8,66.5,50,66.5z
			 M50,39.3c-7.4,0-13.1,5.8-13.1,13.1c0,7.2,5.9,13.1,13.1,13.1c7.2,0,13.1-5.9,13.1-13.1C63.1,45.1,57.4,39.3,50,39.3z M50,64.7
			c-6.8,0-12.3-5.5-12.3-12.3c0-6.8,5.5-12.3,12.3-12.3c6.8,0,12.3,5.5,12.3,12.3C62.3,59.2,56.8,64.7,50,64.7z M50,41.1
			c-6.2,0-11.3,5.1-11.3,11.3c0,6.2,5.1,11.3,11.3,11.3c6.2,0,11.3-5.1,11.3-11.3C61.3,46.2,56.2,41.1,50,41.1z"/>
	</g>
	<g>
		<path d="M53.7,59.2c0.1,0.2,0.5,0.4,0.7,0.4c0.1,0,0.4,0,0.5-0.1c0.4-0.2,0.5-0.8,0.2-1.2l-4.3-6v-5.9c0-0.5-0.4-0.8-0.8-0.8
			s-0.8,0.4-0.8,0.8v6.1c0,0.2,0,0.4,0.1,0.5L53.7,59.2z"/>
		<path d="M54.5,60c-0.4,0-0.9-0.2-1.1-0.6l-4.4-6.2c-0.2-0.2-0.2-0.5-0.2-0.8v-6.1c0-0.8,0.6-1.3,1.3-1.3c0.8,0,1.3,0.6,1.3,1.3V52
			l4.2,5.9c0.2,0.3,0.3,0.7,0.2,1s-0.3,0.7-0.6,0.9C55,60,54.6,60,54.5,60z M54.2,58.9c0,0,0.2,0.1,0.3,0.1c0,0,0.1,0,0.2,0
			c0.1-0.1,0.1-0.2,0.2-0.3c0-0.1,0-0.2,0-0.3l-4.4-6.1v-6.1c0-0.4-0.7-0.4-0.7,0v6.1c0,0.1,0,0.1,0,0.2L54.2,58.9z M54.2,58.9
			C54.2,58.9,54.2,58.9,54.2,58.9S54.2,58.9,54.2,58.9z"/>
	</g>
</g>
</svg>
