<?xml version="1.0" encoding="utf-8"?>
<!-- Generator: Adobe Illustrator 23.0.1, SVG Export Plug-In . SVG Version: 6.00 Build 0)  -->
<svg version="1.1" xmlns="http://www.w3.org/2000/svg" xmlns:xlink="http://www.w3.org/1999/xlink" x="0px" y="0px"
	 viewBox="0 0 100 100" style="enable-background:new 0 0 100 100;" xml:space="preserve">
<g>
	<path class="st0" d="M94.9,12.8H74.7V5.4c0-1.2-0.9-2.1-2.1-2.1c-1.2,0-2.1,0.9-2.1,2.1v7.4H29.9V5.4c0-1.2-0.9-2.1-2.1-2.1
		c-1.2,0-2.1,0.9-2.1,2.1v7.4H4.4c-1.2,0-2.1,0.9-2.1,2.1v79.7c0,1.2,0.9,2.1,2.1,2.1c0,0,0,0,0,0h90.5c1.1,0,2.1-0.9,2.1-2.1
		c0,0,0,0,0,0V14.9C97,13.8,96.1,12.8,94.9,12.8C94.9,12.8,94.9,12.8,94.9,12.8z M25.7,17v13.5c0,1.2,0.9,2.1,2.1,2.1
		c1.2,0,2.1-0.9,2.1-2.1V17h40.6v13.5c0,1.2,0.9,2.1,2.1,2.1c1.2,0,2.1-0.9,2.1-2.1V17h18.1v23.7H6.5V17H25.7z M6.5,92.5V44.9h86.4
		v47.6H6.5z"/>
</g>
<polyline class="st0" points="54.1,51.7 54.1,75.6 47.9,75.6 47.9,51.7 "/>
<circle class="st0" cx="51" cy="82.8" r="3.5"/>
</svg>
