<?xml version="1.0" encoding="utf-8"?>
<!-- Generator: Adobe Illustrator 23.0.1, SVG Export Plug-In . SVG Version: 6.00 Build 0)  -->
<svg version="1.1"
	 xmlns:cc="http://creativecommons.org/ns#" xmlns:dc="http://purl.org/dc/elements/1.1/" xmlns:inkscape="http://www.inkscape.org/namespaces/inkscape" xmlns:rdf="http://www.w3.org/1999/02/22-rdf-syntax-ns#" xmlns:sodipodi="http://sodipodi.sourceforge.net/DTD/sodipodi-0.dtd" xmlns:svg="http://www.w3.org/2000/svg"
	 xmlns="http://www.w3.org/2000/svg" xmlns:xlink="http://www.w3.org/1999/xlink" x="0px" y="0px" viewBox="0 0 100 100"
	 style="enable-background:new 0 0 100 100;" xml:space="preserve">
<g transform="translate(0,-952.36218)">
	<path class="st0" d="M50,977.1c-17.6,0-32,14.4-32,32c0,6.9,2.2,13.4,6,18.6l3.1-2.5c-3.2-4.6-5.1-10.1-5.1-16.1
		c0-15.5,12.5-28,28-28c15.5,0,28,12.5,28,28c0,6-1.9,11.6-5.1,16.1l3.1,2.5c3.7-5.2,6-11.7,6-18.6C82,991.4,67.6,977.1,50,977.1z
		 M62.5,994.4l-16.8,19.2c-1.4,2.4-0.5,5.5,1.8,6.8c2.4,1.4,5.5,0.5,6.8-1.8L62.5,994.4L62.5,994.4z"/>
</g>
</svg>
