<?xml version="1.0" encoding="utf-8"?>
<!-- Generator: Adobe Illustrator 23.0.1, SVG Export Plug-In . SVG Version: 6.00 Build 0)  -->
<svg version="1.1" xmlns="http://www.w3.org/2000/svg" xmlns:xlink="http://www.w3.org/1999/xlink" x="0px" y="0px"
	 viewBox="0 0 100 100" style="enable-background:new 0 0 100 100;" xml:space="preserve">
<g>
	<g transform="translate(-524.000000, -100.000000)">
		<path class="st0" d="M549,104.2c1.3,1.7,2.1,3.9,2.1,6.3v51.3v28.1l10.4-6.9l10.4,8.2l10.7-8.2l10.3,8.2l10.5-8.1l10.2,6.9v-75.2
			c0-5.8-4.7-10.4-10.4-10.4H549z M540.7,100h62.5c8,0,14.6,6.5,14.6,14.6v83.1l-14.2-9.6l-10.8,8.3l-10.3-8.2l-10.7,8.2l-10.6-8.3
			l-14.4,9.5v-35.9v-51.3c0-3.5-2.8-6.3-6.2-6.3c-3.5,0-6.2,2.8-6.2,6.2v14.8h15.5v4.2h-19.7v-18.9C530.2,104.6,534.9,100,540.7,100
			z M559.4,129.2V125h45.8v4.2H559.4z M559.4,141.7v-4.2h45.8v4.2H559.4z M559.4,154.2V150h45.8v4.2H559.4z M559.4,166.7v-4.2h29.2
			v4.2H559.4z"/>
	</g>
</g>
</svg>
