<?xml version="1.0" encoding="utf-8"?>
<!-- Generator: Adobe Illustrator 23.0.1, SVG Export Plug-In . SVG Version: 6.00 Build 0)  -->
<svg version="1.1"
	 xmlns:cc="http://creativecommons.org/ns#" xmlns:dc="http://purl.org/dc/elements/1.1/" xmlns:inkscape="http://www.inkscape.org/namespaces/inkscape" xmlns:rdf="http://www.w3.org/1999/02/22-rdf-syntax-ns#" xmlns:sodipodi="http://sodipodi.sourceforge.net/DTD/sodipodi-0.dtd" xmlns:svg="http://www.w3.org/2000/svg"
	 xmlns="http://www.w3.org/2000/svg" xmlns:xlink="http://www.w3.org/1999/xlink" x="0px" y="0px" viewBox="0 0 100 100"
	 style="enable-background:new 0 0 100 100;" xml:space="preserve">
<g>
	<path class="st0" d="M15,18c-4.8,0-8.8,3.9-8.8,8.8v8.5v10.9v27.1c0,4.8,4,8.8,8.8,8.8h70c4.8,0,8.8-4,8.8-8.8V46.1V35.2v-8.5
		c0-4.8-4-8.8-8.8-8.8H15z M15,21.1h70c3.2,0,5.7,2.5,5.7,5.7v6.9H9.3v-6.9C9.3,23.6,11.8,21.1,15,21.1z M9.3,36.8h81.4v7.8H9.3
		V36.8z M9.3,47.7h81.4v25.5c0,3.2-2.5,5.7-5.7,5.7H15c-3.2,0-5.7-2.5-5.7-5.7V47.7z M18.9,58c-0.9,0-1.6,0.7-1.6,1.5
		c0,0.9,0.7,1.6,1.5,1.6c0,0,0,0,0.1,0h19.7c0.9,0,1.5-0.7,1.5-1.6c0-0.8-0.7-1.5-1.5-1.5H18.9z M18.9,66.5c-0.9,0-1.6,0.7-1.6,1.5
		s0.7,1.6,1.5,1.6c0,0,0,0,0.1,0h8.4c0.9,0,1.6-0.7,1.6-1.5c0-0.9-0.7-1.6-1.5-1.6c0,0,0,0-0.1,0H18.9z"/>
</g>
</svg>
