<?xml version="1.0" encoding="utf-8"?>
<!-- Generator: Adobe Illustrator 23.0.1, SVG Export Plug-In . SVG Version: 6.00 Build 0)  -->
<svg version="1.1" xmlns="http://www.w3.org/2000/svg" xmlns:xlink="http://www.w3.org/1999/xlink" x="0px" y="0px"
	 viewBox="0 0 100 100" style="enable-background:new 0 0 100 100;" xml:space="preserve">
<g>
	<path class="st0" d="M86.7,20.1c0-0.6-0.3-1.3-0.8-1.7c-0.5-0.4-1.2-0.6-1.8-0.5c-0.2,0-19.1,2.6-32.4-10.7c-0.9-0.9-2.4-0.9-3.3,0
		C35.1,20.5,16.2,17.9,16,17.9c-0.7-0.1-1.3,0.1-1.8,0.5c-0.5,0.4-0.8,1-0.9,1.7c-0.8,16.9-1,40.6,7.3,52
		c8.5,11.7,25.5,20.3,28.3,21.2c0.8,0.2,1.6,0.2,2.3,0C54,92.5,71,83.8,79.5,72.1C87.7,60.7,87.5,37,86.7,20.1z M75.6,69.4
		C68.5,79.2,53.5,87.5,50,88.8c-3.5-1.2-18.5-9.6-25.6-19.5s-7.2-30.7-6.5-46.6C23.7,23.1,38.2,22.6,50,12
		c11.8,10.6,26.3,11,32.2,10.7C82.8,38.7,82.7,59.7,75.6,69.4z M63.6,39.5c1,0.9,1,2.3,0.2,3.3c0,0,0,0,0,0L47.9,60.3
		c-0.4,0.5-1.1,0.8-1.7,0.8l0,0c-0.6,0-1.2-0.3-1.7-0.7L36.3,52c-0.9-0.9-0.9-2.4,0-3.3c0.9-0.9,2.4-0.9,3.3,0l0,0l6.5,6.6
		l14.2-15.6C61.2,38.8,62.7,38.7,63.6,39.5z"/>
</g>
</svg>
