<?xml version="1.0" encoding="utf-8"?>
<!-- Generator: Adobe Illustrator 23.0.1, SVG Export Plug-In . SVG Version: 6.00 Build 0)  -->
<svg version="1.1" xmlns="http://www.w3.org/2000/svg" xmlns:xlink="http://www.w3.org/1999/xlink" x="0px" y="0px"
	 viewBox="0 0 100 100" style="enable-background:new 0 0 100 100;" xml:space="preserve">
<path class="st0" d="M92.1,90.6c0,1.4-1.1,2.5-2.5,2.5H10.4c-1.4,0-2.5-1.1-2.5-2.5s1.1-2.5,2.5-2.5h4.1V66c0-1.4,1.1-2.5,2.5-2.5
	s2.5,1.1,2.5,2.5v22.1h17V54.3c0-4.1,3.4-7.5,7.5-7.5l0,0h12c1.4,0,2.5-1.1,2.5-2.5V15.3l-3.4,3.3c-1,1-2.6,0.9-3.5-0.1
	S50.6,16,51.6,15l0,0l7.7-7.4c1-0.9,2.5-0.9,3.5,0l7.7,7.4c1,1,1,2.5,0.1,3.5c0,0,0,0,0,0c-1,1-2.5,1-3.5,0.1c0,0,0,0,0,0l-3.4-3.3
	v29c0,4.1-3.4,7.5-7.5,7.5H44c-1.4,0-2.5,1.1-2.5,2.5v33.8h17V58.9c0-1.4,1.1-2.5,2.5-2.5s2.5,1.1,2.5,2.5v29.2h17V51.7
	c0-1.4,1.1-2.5,2.5-2.5s2.5,1.1,2.5,2.5v36.4h4.1C91,88.1,92.1,89.2,92.1,90.6z"/>
</svg>
