<?xml version="1.0" encoding="utf-8"?>
<!-- Generator: Adobe Illustrator 23.0.1, SVG Export Plug-In . SVG Version: 6.00 Build 0)  -->
<svg version="1.1" xmlns="http://www.w3.org/2000/svg" xmlns:xlink="http://www.w3.org/1999/xlink" x="0px" y="0px"
	 viewBox="0 0 100 100" style="enable-background:new 0 0 100 100;" xml:space="preserve">
<style type="text/css">
	.st0{stroke-width:3;stroke-miterlimit:10;}
</style>
<path class="st0" d="M64.2,9.7C64.2,9.7,64.2,9.7,64.2,9.7c-0.1,0-0.1,0-0.2-0.1C59.5,8.1,54.8,7.3,50,7.3C26.5,7.3,7.3,26.5,7.3,50
	S26.5,92.7,50,92.7c4.5,0,9-0.7,13.2-2.1c0,0,0.1,0,0.2,0c0,0,0,0,0.1,0C80.9,84.7,92.7,68.5,92.7,50C92.7,32,81.3,15.8,64.2,9.7z
	 M64.4,12C79.7,17.9,90.2,32.6,90.6,49H51.5L64.4,12z M50,90.6C27.6,90.6,9.4,72.4,9.4,50S27.6,9.4,50,9.4c4.2,0,8.4,0.7,12.5,2
	L49,49.6c0,0,0,0.1,0,0.1c0,0.1,0,0.1,0,0.2c0,0.1,0,0.2,0,0.2c0,0,0,0.1,0,0.1l12.6,38.6C57.9,90.1,54,90.6,50,90.6z M63.6,88.3
	L51.4,51h39.2C90.2,67.8,79.4,82.6,63.6,88.3z"/>
</svg>
