<?xml version="1.0" encoding="utf-8"?>
<!-- Generator: Adobe Illustrator 23.0.1, SVG Export Plug-In . SVG Version: 6.00 Build 0)  -->
<svg version="1.1"
	 xmlns:cc="http://creativecommons.org/ns#" xmlns:dc="http://purl.org/dc/elements/1.1/" xmlns:inkscape="http://www.inkscape.org/namespaces/inkscape" xmlns:rdf="http://www.w3.org/1999/02/22-rdf-syntax-ns#" xmlns:sodipodi="http://sodipodi.sourceforge.net/DTD/sodipodi-0.dtd" xmlns:svg="http://www.w3.org/2000/svg"
	 xmlns="http://www.w3.org/2000/svg" xmlns:xlink="http://www.w3.org/1999/xlink" x="0px" y="0px" viewBox="0 0 100 100"
	 style="enable-background:new 0 0 100 100;" xml:space="preserve">
<g transform="translate(0,-952.36218)">
	<path class="st0" d="M40.8,965.4c-1,0.1-1.8,1-1.8,2v68h-6v-34c0-1-1-2-2-2c-6,0-12.1,0-18.2,0c-1,0.1-1.8,1-1.8,2v34
		c-1.1,0-2.1,0-3.2,0c-1,0-2,1-1.9,2.1c0,1,1,2,2.1,1.9h83.9c1.1,0,2-0.9,2-2c0-1.1-1-2-2-2h-3v-50c0-1-1-2-2-2c-6,0-12.1,0-18.2,0
		c-1,0.1-1.8,1-1.8,2v50h-6v-48c0-1.1-1-2-2-2c-1,0-2,1-2,2v48h-14v-66h14v10c0,1.1,0.9,2,2,2s2-1,2-2v-12c0-1-1-2-2-2
		C52.9,965.4,46.8,965.4,40.8,965.4L40.8,965.4z M70.9,987.4h14v48h-14V987.4z M15,1003.4h14v32H15L15,1003.4z"/>
</g>
</svg>
