<?xml version="1.0" encoding="utf-8"?>
<!-- Generator: Adobe Illustrator 23.0.1, SVG Export Plug-In . SVG Version: 6.00 Build 0)  -->
<svg version="1.1" xmlns="http://www.w3.org/2000/svg" xmlns:xlink="http://www.w3.org/1999/xlink" x="0px" y="0px"
	 viewBox="0 0 100 100" style="enable-background:new 0 0 100 100;" xml:space="preserve">
<g>
	<path class="st0" d="M21.5,88.4h67.3c3.9,0,7-3.1,7-7V40.6c0-3.9-3.1-7-7-7h-3.3v-3c0-3.9-3.1-7-7-7h-19v-7c0-2.8-2.2-5-5-5H35.2
		c-2.8,0-5,2.2-5,5v7h-19c-3.9,0-7,3.1-7,7v40.8c0,3.9,3.1,7,7,7h3.3v3C14.5,85.3,17.6,88.4,21.5,88.4z M88.8,35.6c2.8,0,5,2.2,5,5
		v40.8c0,2.8-2.2,5-5,5H21.5c-2.8,0-5-2.2-5-5v-3h62c3.9,0,7-3.1,7-7V35.6H88.8z M18.5,76.4V25.6h52.7v50.8H18.5z M83.5,30.6v40.8
		c0,2.8-2.2,5-5,5h-5.3V25.6h5.3C81.3,25.6,83.5,27.8,83.5,30.6z M32.2,16.6c0-1.7,1.3-3,3-3h19.3c1.7,0,3,1.3,3,3v7H32.2V16.6z
		 M6.2,71.4V30.6c0-2.8,2.2-5,5-5h5.3v50.8h-5.3C8.4,76.4,6.2,74.2,6.2,71.4z"/>
</g>
</svg>
