<?xml version="1.0" encoding="utf-8"?>
<!-- Generator: Adobe Illustrator 23.0.1, SVG Export Plug-In . SVG Version: 6.00 Build 0)  -->
<svg version="1.1" xmlns="http://www.w3.org/2000/svg" xmlns:xlink="http://www.w3.org/1999/xlink" x="0px" y="0px"
	 viewBox="0 0 100 100" style="enable-background:new 0 0 100 100;" xml:space="preserve">
<g>
	<path class="st0" d="M40.2,49H14.3c-0.8,0-1.4,0.6-1.4,1.4v18.3H5.1c-0.8,0-1.4,0.6-1.4,1.4v18.5c0,0.8,0.6,1.4,1.4,1.4h18.4
		c0.8,0,1.4-0.6,1.4-1.4V70.2c0-0.8-0.6-1.4-1.4-1.4h-7.8V51.9h24.5c0.6,4.3,4,7.7,8.4,8.4v8.5h-7.8c-0.8,0-1.4,0.6-1.4,1.4v18.5
		c0,0.8,0.6,1.4,1.4,1.4h18.4c0.8,0,1.4-0.6,1.4-1.4V70.2c0-0.8-0.6-1.4-1.4-1.4h-7.8v-8.5c4.3-0.6,7.7-4,8.4-8.4h24.5v16.9h-7.8
		c-0.8,0-1.4,0.6-1.4,1.4v18.5c0,0.8,0.6,1.4,1.4,1.4h18.4c0.8,0,1.4-0.6,1.4-1.4V70.2c0-0.8-0.6-1.4-1.4-1.4h-7.8V50.5
		c0-0.8-0.6-1.4-1.4-1.4H59.8c-0.6-4.3-4-7.7-8.4-8.4v-8.5h43.5c0.8,0,1.4-0.6,1.4-1.4V11.3c0-0.8-0.6-1.4-1.4-1.4H5.1
		c-0.8,0-1.4,0.6-1.4,1.4v19.4c0,0.8,0.6,1.4,1.4,1.4h43.5v8.5C44.2,41.3,40.8,44.7,40.2,49z M22.1,87.3H6.5V71.7h15.5V87.3z
		 M57.8,87.3H42.2V71.7h15.5V87.3z M93.5,87.3H77.9V71.7h15.5V87.3z M6.5,12.7h87v16.5h-87V12.7z M57,50.5c0,3.9-3.2,7-7,7
		s-7-3.2-7-7s3.2-7,7-7S57,46.6,57,50.5z"/>
</g>
</svg>
